<svg width="38" height="42" viewBox="0 0 38 42" fill="none" xmlns="http://www.w3.org/2000/svg">
<path d="M0.926758 0L4.29269 37.7874L19.4057 42L34.5587 37.7727L37.9268 0H0.926758ZM30.9323 8.6583L29.8103 21.2457L29.8145 21.315L29.8103 21.4704L29.0119 30.2694L28.9257 31.0527L19.4268 33.6777L19.4184 33.6861L9.93828 31.0443L9.29535 23.7678H13.9429L14.2728 27.468L19.4268 28.8645L24.5975 27.4491L25.1438 21.4242H14.3358L14.2434 20.4057L14.0312 18.0201L13.9219 16.7391H25.5577L25.9821 12.0519H8.25322L8.16077 11.0334L7.95066 8.6457L7.83931 7.3647H31.0436L30.9323 8.6583Z" fill="url(#paint0_linear_14_61)"/>
<defs>
<linearGradient id="paint0_linear_14_61" x1="19.4268" y1="0" x2="19.4268" y2="42" gradientUnits="userSpaceOnUse">
<stop stop-color="#FDFDFD"/>
<stop offset="1" stop-color="white" stop-opacity="0.18"/>
</linearGradient>
</defs>
</svg>
