<svg width="62" height="57" viewBox="0 0 62 57" fill="none" xmlns="http://www.w3.org/2000/svg">
<path d="M34.0806 44.2715H53.0778C53.684 44.2715 54.2643 44.0757 54.7892 43.7995C55.3143 43.5233 55.8555 43.1765 56.1584 42.698C56.4614 42.2196 56.6721 41.6768 56.6719 41.1245C56.6716 40.5721 56.4619 40.0295 56.1584 39.5513L43.3225 19.2539C43.0195 18.7755 42.6493 18.4286 42.1245 18.1524C41.5996 17.8763 40.848 17.6804 40.2419 17.6804C39.6358 17.6804 39.0553 17.8763 38.5305 18.1524C38.0055 18.4286 37.6353 18.7755 37.3324 19.2539L34.0806 24.4462L27.577 14.3758C27.2738 13.8975 26.9041 13.3936 26.3791 13.1175C25.854 12.8413 25.2738 12.8027 24.6676 12.8027C24.0615 12.8027 23.4812 12.8413 22.9561 13.1175C22.4312 13.3936 21.8902 13.8975 21.587 14.3758L5.67042 39.5513C5.36697 40.0295 5.32839 40.5721 5.32813 41.1245C5.32786 41.6768 5.36743 42.2195 5.67042 42.698C5.97341 43.1764 6.51459 43.5233 7.03958 43.7995C7.56458 44.0757 8.1448 44.2715 8.75105 44.2715H20.7313C25.4782 44.2715 28.9334 42.3138 31.3423 38.6071L37.1613 29.3238L40.2419 24.4462L49.6549 39.2365H37.1613L34.0806 44.2715ZM20.5601 39.2365H12.1739L24.6676 19.4112L31 29.3238L26.8054 36.0463C25.2058 38.4513 23.3819 39.2365 20.5601 39.2365Z" fill="url(#paint0_linear_2005_10)"/>
<defs>
<linearGradient id="paint0_linear_2005_10" x1="31" y1="12.8027" x2="31" y2="44.2715" gradientUnits="userSpaceOnUse">
<stop stop-color="#FDFDFD"/>
<stop offset="1" stop-color="white" stop-opacity="0.18"/>
</linearGradient>
</defs>
</svg>
