<svg width="48" height="42" viewBox="0 0 48 42" fill="none" xmlns="http://www.w3.org/2000/svg">
<path d="M23.8722 16.8729C26.1238 16.8729 27.9601 18.7072 27.9601 21C27.9601 23.1836 26.1238 25.0397 23.8722 25.0397C21.6206 25.0397 19.7843 23.1836 19.7843 21C19.7843 18.7072 21.6206 16.8729 23.8722 16.8729ZM13.7508 38.469C15.128 39.2988 18.1448 38.0323 21.6206 34.7568C20.4838 33.4685 19.3689 32.071 18.3196 30.608C16.558 30.4396 14.8067 30.1771 13.0731 29.8218C11.9582 34.4948 12.3736 37.7047 13.7508 38.469ZM15.3029 25.935L14.6689 24.8213C14.4285 25.4546 14.188 26.0878 14.035 26.6993C14.6252 26.8303 15.281 26.9395 15.9587 27.0486L15.3029 25.935ZM29.5996 24.2754L31.3703 21L29.5996 17.7246C28.9438 16.5672 28.2443 15.5409 27.6103 14.5146C26.4299 14.4491 25.1838 14.4491 23.8722 14.4491C22.5606 14.4491 21.3145 14.4491 20.1341 14.5146C19.5001 15.5409 18.8006 16.5672 18.1448 17.7246L16.3741 21L18.1448 24.2754C18.8006 25.4328 19.5001 26.4591 20.1341 27.4854C21.3145 27.5509 22.5606 27.5509 23.8722 27.5509C25.1838 27.5509 26.4299 27.5509 27.6103 27.4854C28.2443 26.4591 28.9438 25.4328 29.5996 24.2754ZM23.8722 9.60147C23.4568 10.0819 23.0196 10.5841 22.5824 11.1737H25.162C24.7248 10.5841 24.2875 10.0819 23.8722 9.60147ZM23.8722 32.3985C24.2875 31.9181 24.7248 31.4159 25.162 30.8263H22.5824C23.0196 31.4159 23.4568 31.9181 23.8722 32.3985ZM33.9717 3.53099C32.6164 2.70122 29.5996 3.96772 26.1238 7.24316C27.2606 8.5315 28.3754 9.92902 29.4247 11.392C31.2173 11.5667 32.988 11.8288 34.6713 12.1782C35.7861 7.50519 35.3708 4.29526 33.9717 3.53099ZM32.4415 16.065L33.0754 17.1787C33.3159 16.5454 33.5564 15.9122 33.7094 15.3007C33.1192 15.1697 32.4634 15.0605 31.7857 14.9514L32.4415 16.065ZM35.6113 0.670445C38.8248 2.50469 39.1745 7.3305 37.8192 12.9643C43.3717 14.602 47.3722 17.3097 47.3722 21C47.3722 24.6903 43.3717 27.398 37.8192 29.0357C39.1745 34.6695 38.8248 39.4953 35.6113 41.3296C32.4196 43.1638 28.0694 41.0675 23.8722 37.0715C19.675 41.0675 15.3247 43.1638 12.1113 41.3296C8.91963 39.4953 8.56987 34.6695 9.92522 29.0357C4.37266 27.398 0.372192 24.6903 0.372192 21C0.372192 17.3097 4.37266 14.602 9.92522 12.9643C8.56987 7.3305 8.91963 2.50469 12.1113 0.670445C15.3247 -1.1638 19.675 0.93248 23.8722 4.92851C28.0694 0.93248 32.4196 -1.1638 35.6113 0.670445ZM34.9773 21C35.7206 22.6377 36.3764 24.2754 36.9229 25.935C41.5136 24.5593 44.0931 22.594 44.0931 21C44.0931 19.406 41.5136 17.4407 36.9229 16.065C36.3764 17.7246 35.7206 19.3623 34.9773 21ZM12.7671 21C12.0238 19.3623 11.368 17.7246 10.8215 16.065C6.2308 17.4407 3.65126 19.406 3.65126 21C3.65126 22.594 6.2308 24.5593 10.8215 25.935C11.368 24.2754 12.0238 22.6377 12.7671 21ZM32.4415 25.935L31.7857 27.0486C32.4634 26.9395 33.1192 26.8303 33.7094 26.6993C33.5564 26.0878 33.3159 25.4546 33.0754 24.8213L32.4415 25.935ZM26.1238 34.7568C29.5996 38.0323 32.6164 39.2988 33.9717 38.469C35.3708 37.7047 35.7861 34.4948 34.6713 29.8218C32.988 30.1712 31.2173 30.4333 29.4247 30.608C28.3754 32.071 27.2606 33.4685 26.1238 34.7568ZM15.3029 16.065L15.9587 14.9514C15.281 15.0605 14.6252 15.1697 14.035 15.3007C14.188 15.9122 14.4285 16.5454 14.6689 17.1787L15.3029 16.065ZM21.6206 7.24316C18.1448 3.96772 15.128 2.70122 13.7508 3.53099C12.3736 4.29526 11.9582 7.50519 13.0731 12.1782C14.8067 11.8229 16.558 11.5604 18.3196 11.392C19.3689 9.92902 20.4838 8.5315 21.6206 7.24316Z" fill="url(#paint0_linear_14_62)"/>
<defs>
<linearGradient id="paint0_linear_14_62" x1="23.8722" y1="0" x2="23.8722" y2="42" gradientUnits="userSpaceOnUse">
<stop stop-color="#FDFDFD"/>
<stop offset="1" stop-color="white" stop-opacity="0.18"/>
</linearGradient>
</defs>
</svg>
